<svg xmlns="http://www.w3.org/2000/svg" viewBox="0 0 1024 1024">
  <defs>
    <linearGradient id="felt" x1="0" y1="0" x2="1" y2="1">
      <stop offset="0%" stop-color="#2c8a57"/>
      <stop offset="100%" stop-color="#145a38"/>
    </linearGradient>
    <linearGradient id="cardFace" x1="0" y1="0" x2="0" y2="1">
      <stop offset="0%" stop-color="#fffdfa"/>
      <stop offset="100%" stop-color="#f3efe8"/>
    </linearGradient>
    <filter id="shadow" x="-20%" y="-20%" width="140%" height="140%">
      <feDropShadow dx="0" dy="28" stdDeviation="30" flood-color="#0b2a1a" flood-opacity="0.32"/>
    </filter>
  </defs>

  <rect x="64" y="64" width="896" height="896" rx="216" fill="url(#felt)"/>
  <rect x="112" y="112" width="800" height="800" rx="184" fill="none" stroke="#7ad0a0" stroke-opacity="0.22" stroke-width="10"/>

  <g filter="url(#shadow)">
    <rect x="256" y="228" width="348" height="484" rx="34" fill="#d9e8dd" transform="rotate(-8 430 470)"/>
    <rect x="360" y="190" width="408" height="572" rx="42" fill="url(#cardFace)" stroke="#d8d1c5" stroke-width="6" transform="rotate(7 564 476)"/>
  </g>

  <g transform="rotate(7 564 476)">
    <rect x="412" y="246" width="304" height="460" rx="26" fill="none" stroke="#ece4d7" stroke-width="8"/>
    <polygon points="564,342 632,426 564,510 496,426" fill="#d54b3d"/>
    <polygon points="468,282 494,314 468,346 442,314" fill="#d54b3d" opacity="0.95"/>
    <polygon points="660,606 686,638 660,670 634,638" fill="#d54b3d" opacity="0.95"/>
    <rect x="456" y="560" width="216" height="28" rx="14" fill="#1d6d45" opacity="0.18"/>
    <rect x="456" y="608" width="164" height="28" rx="14" fill="#1d6d45" opacity="0.12"/>
  </g>
</svg>